<svg xmlns="http://www.w3.org/2000/svg" viewBox="0 0 2424.08 228.37"><defs><style>.cls-1{fill:#ea3628;}</style></defs><g id="Layer_2" data-name="Layer 2"><g id="Layer_1-2" data-name="Layer 1"><path d="M708.21,77.56V66.28l40.49-.07V101.9a71.37,71.37,0,0,1-19.23,11.24,56.66,56.66,0,0,1-20.35,3.78,54.13,54.13,0,0,1-25.6-6.07A40,40,0,0,1,666.15,93.3a55.4,55.4,0,0,1-5.87-25.64,59.82,59.82,0,0,1,5.83-26.21,39,39,0,0,1,16.8-18.07q11-5.89,25.23-5.9a49.81,49.81,0,0,1,18.75,3.38A31,31,0,0,1,740,30.27,41.87,41.87,0,0,1,747.27,46l-11.41,3.15a35.7,35.7,0,0,0-5.35-11.54,22,22,0,0,0-9.13-6.73,33.39,33.39,0,0,0-13.17-2.52,38.63,38.63,0,0,0-15,2.65A28.08,28.08,0,0,0,683,38a33.71,33.71,0,0,0-6,9.51,50.69,50.69,0,0,0-3.65,19.35q0,12.85,4.4,21.51a28.26,28.26,0,0,0,12.82,12.86,39.42,39.42,0,0,0,17.86,4.2,42.2,42.2,0,0,0,16-3.18q7.83-3.18,11.87-6.79V77.56Z" transform="translate(0 -15.55)"/><path d="M761.48,80.45q0-19.35,10.7-28.67Q781.11,44,794,44q14.28,0,23.35,9.42t9.06,26q0,13.46-4,21.16a28.59,28.59,0,0,1-11.67,12A33.88,33.88,0,0,1,794,116.85q-14.55,0-23.51-9.38T761.48,80.45Zm12.07,0q0,13.38,5.8,20a19.25,19.25,0,0,0,29.15,0q5.81-6.69,5.81-20.4,0-12.92-5.84-19.58a19.29,19.29,0,0,0-29.12,0Q773.55,67.07,773.55,80.45Z" transform="translate(0 -15.55)"/><path d="M885.52,115.28V105q-8.1,11.8-22,11.81a27.89,27.89,0,0,1-11.44-2.36,18.87,18.87,0,0,1-7.9-5.94,22.31,22.31,0,0,1-3.61-8.75,60.09,60.09,0,0,1-.72-11V45.62h11.74V84.25q0,9.25.71,12.46A12.33,12.33,0,0,0,857,104a14.5,14.5,0,0,0,8.87,2.65A19.19,19.19,0,0,0,875.8,104a15,15,0,0,0,6.55-7.41q1.93-4.69,1.93-13.61V45.62H896v69.66Z" transform="translate(0 -15.55)"/><path d="M933.64,115.28,907.3,45.62h12.39l14.86,41.71q2.41,6.77,4.44,14,1.56-5.5,4.37-13.25l15.39-42.5h12.06L944.6,115.28Z" transform="translate(0 -15.55)"/><path d="M1028.59,92.84l12.13,1.51q-2.88,10.7-10.63,16.6t-19.83,5.9q-15.19,0-24.09-9.41T977.27,81q0-17.58,9-27.29T1009.61,44q13.89,0,22.7,9.51t8.8,26.77c0,.7,0,1.75-.07,3.14H989.4Q990,95,995.85,101a19.16,19.16,0,0,0,14.48,6.1,17.85,17.85,0,0,0,11-3.41Q1025.91,100.32,1028.59,92.84ZM990.05,73.76h38.67q-.78-8.79-4.44-13.19a18,18,0,0,0-14.54-6.82,18.57,18.57,0,0,0-13.59,5.45Q990.63,64.65,990.05,73.76Z" transform="translate(0 -15.55)"/><path d="M1055.33,115.28V45.62h10.56V56.18q4-7.41,7.47-9.77a12.93,12.93,0,0,1,7.53-2.37A22.76,22.76,0,0,1,1093,47.85l-4,10.95a16.78,16.78,0,0,0-8.61-2.56,11.15,11.15,0,0,0-6.91,2.33A12.63,12.63,0,0,0,1069,65a46.4,46.4,0,0,0-2,13.78v36.47Z" transform="translate(0 -15.55)"/><path d="M1099.93,115.28V45.62h10.56v9.9q7.63-11.48,22-11.48a28.76,28.76,0,0,1,11.51,2.27,18.14,18.14,0,0,1,7.85,5.93,22.77,22.77,0,0,1,3.65,8.73,67.07,67.07,0,0,1,.66,11.47v42.84h-11.74V72.9q0-7.22-1.37-10.79a11.3,11.3,0,0,0-4.86-5.7,15.39,15.39,0,0,0-8.18-2.13,19,19,0,0,0-13,4.78q-5.44,4.8-5.44,18.17v38.05Z" transform="translate(0 -15.55)"/><path d="M1221.61,92.84l12.13,1.51q-2.87,10.7-10.63,16.6t-19.82,5.9q-15.19,0-24.1-9.41t-8.9-26.4q0-17.58,9-27.29T1202.64,44q13.89,0,22.69,9.51t8.8,26.77c0,.7,0,1.75-.06,3.14h-51.65q.66,11.49,6.46,17.58a19.14,19.14,0,0,0,14.47,6.1,17.83,17.83,0,0,0,11-3.41Q1218.95,100.32,1221.61,92.84Zm-38.54-19.08h38.67q-.78-8.79-4.43-13.19a18,18,0,0,0-14.54-6.82,18.6,18.6,0,0,0-13.6,5.45Q1183.67,64.65,1183.07,73.76Z" transform="translate(0 -15.55)"/><path d="M1248.48,115.28V45.62H1259v9.77a24.72,24.72,0,0,1,8.67-8.23A24.25,24.25,0,0,1,1280,44q7.69,0,12.62,3.22a17.21,17.21,0,0,1,6.94,9Q1307.76,44,1320.93,44q10.3,0,15.85,5.74t5.54,17.68v47.82h-11.67V71.4q0-7.09-1.15-10.2a9.86,9.86,0,0,0-4.14-5,12.83,12.83,0,0,0-7-1.9,16.37,16.37,0,0,0-12.13,4.88q-4.83,4.89-4.82,15.65v40.47h-11.74V70q0-7.87-2.87-11.81t-9.39-3.93a16.94,16.94,0,0,0-9.16,2.62,14.86,14.86,0,0,0-6.1,7.67q-1.89,5.06-1.89,14.57v36.14Z" transform="translate(0 -15.55)"/><path d="M1407.14,92.84l12.13,1.51q-2.88,10.7-10.63,16.6t-19.83,5.9q-15.19,0-24.09-9.41t-8.9-26.4q0-17.58,9-27.29T1388.16,44q13.89,0,22.7,9.51t8.8,26.77c0,.7,0,1.75-.07,3.14H1368Q1368.6,95,1374.4,101a19.16,19.16,0,0,0,14.48,6.1,17.85,17.85,0,0,0,11-3.41Q1404.46,100.32,1407.14,92.84ZM1368.6,73.76h38.67q-.78-8.79-4.44-13.19a18,18,0,0,0-14.54-6.82,18.57,18.57,0,0,0-13.59,5.45Q1369.18,64.65,1368.6,73.76Z" transform="translate(0 -15.55)"/><path d="M1434,115.28V45.62h10.56v9.9q7.64-11.48,22-11.48a28.76,28.76,0,0,1,11.51,2.27,18.12,18.12,0,0,1,7.86,5.93,22.92,22.92,0,0,1,3.65,8.73,68.45,68.45,0,0,1,.65,11.47v42.84h-11.74V72.9q0-7.22-1.36-10.79a11.39,11.39,0,0,0-4.86-5.7,15.43,15.43,0,0,0-8.19-2.13,18.94,18.94,0,0,0-12.94,4.78q-5.45,4.8-5.45,18.17v38.05Z" transform="translate(0 -15.55)"/><path d="M1533.91,104.72l1.69,10.42a43.23,43.23,0,0,1-8.86,1c-4.27,0-7.57-.67-9.92-2a11.33,11.33,0,0,1-5-5.35q-1.44-3.3-1.44-13.93V54.8h-8.6V45.62h8.6V28.37l11.68-7.09V45.62h11.8V54.8h-11.8V95.53c0,3.37.2,5.53.62,6.5a4.86,4.86,0,0,0,2,2.29,7.74,7.74,0,0,0,4,.85A38.75,38.75,0,0,0,1533.91,104.72Z" transform="translate(0 -15.55)"/><path d="M706.9,242.28v-8.79q-6.58,10.37-19.36,10.36a27,27,0,0,1-15.23-4.59,30.16,30.16,0,0,1-10.76-12.82,44.62,44.62,0,0,1-3.82-18.93,49.85,49.85,0,0,1,3.46-18.92A27.13,27.13,0,0,1,687,171a23,23,0,0,1,11.15,2.66,23.27,23.27,0,0,1,8,6.92v-34.5h11.67v96.16Zm-37.1-34.77q0,13.38,5.61,20t13.23,6.62a16.58,16.58,0,0,0,13.08-6.33q5.38-6.33,5.38-19.31,0-14.31-5.48-21t-13.5-6.69a16.22,16.22,0,0,0-13.07,6.43Q669.8,193.67,669.8,207.51Z" transform="translate(0 -15.55)"/><path d="M781.64,242.28V232q-8.1,11.81-22,11.81a28,28,0,0,1-11.45-2.36,18.9,18.9,0,0,1-7.89-5.94,22.47,22.47,0,0,1-3.62-8.75,61.23,61.23,0,0,1-.71-11V172.62h11.74v38.63q0,9.25.71,12.46a12.33,12.33,0,0,0,4.7,7.32,14.5,14.5,0,0,0,8.87,2.65,19.19,19.19,0,0,0,9.91-2.72,15.08,15.08,0,0,0,6.55-7.41q1.92-4.7,1.93-13.61V172.62h11.73v69.66Z" transform="translate(0 -15.55)"/><path d="M917.34,208.56,930,211.78q-4,15.67-14.31,23.9t-25.27,8.24q-15.46,0-25.14-6.33t-14.74-18.34a65.69,65.69,0,0,1-5-25.77q0-15,5.7-26.21a39.3,39.3,0,0,1,16.24-17,47.22,47.22,0,0,1,23.18-5.8q14.35,0,24.13,7.35t13.63,20.66l-12.46,2.95q-3.31-10.5-9.65-15.28t-15.91-4.79q-11,0-18.42,5.31A28.07,28.07,0,0,0,861.52,175a57.72,57.72,0,0,0-3,18.46,59,59,0,0,0,3.55,21.42,26.61,26.61,0,0,0,11.06,13.67A30.81,30.81,0,0,0,889.36,233a27.11,27.11,0,0,0,18-6.17Q914.72,220.7,917.34,208.56Z" transform="translate(0 -15.55)"/><path d="M989.27,233.68a43.66,43.66,0,0,1-12.56,7.87,36.06,36.06,0,0,1-12.94,2.3q-11.41,0-17.54-5.61a18.54,18.54,0,0,1-6.13-14.33,19.42,19.42,0,0,1,8.38-16.14,28.42,28.42,0,0,1,8.44-3.86,82,82,0,0,1,10.44-1.78q14.21-1.69,20.93-4.06.06-2.43.06-3.09,0-7.2-3.32-10.16-4.5-4-13.37-4-8.28,0-12.23,2.92t-5.83,10.33l-11.48-1.58a28.67,28.67,0,0,1,5.15-12,22.58,22.58,0,0,1,10.37-7A46,46,0,0,1,973.35,171q8.88,0,14.42,2.1a19,19,0,0,1,8.15,5.28,18.65,18.65,0,0,1,3.65,8,66.89,66.89,0,0,1,.59,10.89v15.74q0,16.46.75,20.82a26.6,26.6,0,0,0,3,8.37H991.61A25.18,25.18,0,0,1,989.27,233.68Zm-1-26.36q-6.39,2.63-19.17,4.46-7.25,1-10.24,2.36a10.35,10.35,0,0,0-2.71,17.31q3.55,3.15,10.4,3.15a24.11,24.11,0,0,0,12.07-3,18.36,18.36,0,0,0,7.76-8.17q1.89-4,1.89-11.81Z" transform="translate(0 -15.55)"/><path d="M1018.35,242.28V172.62h10.56v9.9q7.63-11.47,22-11.48a28.76,28.76,0,0,1,11.51,2.27,18.14,18.14,0,0,1,7.85,5.93A22.94,22.94,0,0,1,1074,188a68.45,68.45,0,0,1,.65,11.47v42.84h-11.74V199.9q0-7.22-1.37-10.79a11.3,11.3,0,0,0-4.86-5.7,15.37,15.37,0,0,0-8.18-2.13,19,19,0,0,0-13,4.78q-5.44,4.8-5.44,18.17v38.05Z" transform="translate(0 -15.55)"/><path d="M1137.82,233.68a43.53,43.53,0,0,1-12.56,7.87,36.06,36.06,0,0,1-12.94,2.3q-11.41,0-17.54-5.61a18.54,18.54,0,0,1-6.13-14.33,19.42,19.42,0,0,1,8.38-16.14,28.42,28.42,0,0,1,8.44-3.86,82,82,0,0,1,10.44-1.78q14.21-1.69,20.93-4.06.06-2.43.06-3.09,0-7.2-3.32-10.16-4.5-4-13.37-4-8.28,0-12.23,2.92t-5.83,10.33l-11.48-1.58a28.67,28.67,0,0,1,5.15-12,22.58,22.58,0,0,1,10.37-7,46,46,0,0,1,15.72-2.46q8.86,0,14.41,2.1a19,19,0,0,1,8.15,5.28,18.65,18.65,0,0,1,3.65,8,66.89,66.89,0,0,1,.59,10.89v15.74q0,16.46.75,20.82a26.6,26.6,0,0,0,3,8.37h-12.26A25.18,25.18,0,0,1,1137.82,233.68Zm-1-26.36q-6.39,2.63-19.17,4.46-7.25,1-10.24,2.36a10.08,10.08,0,0,0-6.26,9.44,10.07,10.07,0,0,0,3.55,7.87q3.55,3.15,10.4,3.15a24.11,24.11,0,0,0,12.07-3,18.31,18.31,0,0,0,7.76-8.17q1.89-4,1.89-11.81Z" transform="translate(0 -15.55)"/><path d="M1211.83,242.28v-8.79q-6.58,10.37-19.37,10.36a27,27,0,0,1-15.22-4.59,30.16,30.16,0,0,1-10.76-12.82,44.47,44.47,0,0,1-3.82-18.93,49.65,49.65,0,0,1,3.46-18.92A27.13,27.13,0,0,1,1191.94,171a23,23,0,0,1,11.15,2.66,23.36,23.36,0,0,1,8,6.92v-34.5h11.67v96.16Zm-37.1-34.77q0,13.38,5.6,20t13.24,6.62a16.58,16.58,0,0,0,13.08-6.33q5.37-6.33,5.38-19.31,0-14.31-5.48-21t-13.5-6.69a16.21,16.21,0,0,0-13.07,6.43Q1174.73,193.67,1174.73,207.51Z" transform="translate(0 -15.55)"/><path d="M1286.37,233.68a43.53,43.53,0,0,1-12.56,7.87,36.06,36.06,0,0,1-12.94,2.3q-11.41,0-17.54-5.61a18.54,18.54,0,0,1-6.13-14.33,19.42,19.42,0,0,1,8.38-16.14,28.42,28.42,0,0,1,8.44-3.86,82,82,0,0,1,10.44-1.78q14.2-1.69,20.93-4.06.06-2.43.06-3.09,0-7.2-3.32-10.16-4.5-4-13.37-4-8.28,0-12.23,2.92t-5.83,10.33l-11.48-1.58a28.67,28.67,0,0,1,5.15-12,22.58,22.58,0,0,1,10.37-7,46,46,0,0,1,15.72-2.46q8.86,0,14.41,2.1a19,19,0,0,1,8.15,5.28,18.54,18.54,0,0,1,3.65,8,66.89,66.89,0,0,1,.59,10.89v15.74q0,16.46.75,20.82a26.38,26.38,0,0,0,3,8.37h-12.26A25.18,25.18,0,0,1,1286.37,233.68Zm-1-26.36q-6.39,2.63-19.17,4.46-7.24,1-10.24,2.36a10.08,10.08,0,0,0-6.26,9.44,10.07,10.07,0,0,0,3.55,7.87q3.56,3.15,10.4,3.15a24.08,24.08,0,0,0,12.07-3,18.31,18.31,0,0,0,7.76-8.17q1.89-4,1.89-11.81Z" transform="translate(0 -15.55)"/><path d="M0,241.48v-225H110.31V241.32c-18.09.05-36.47.12-54.85.15C37.39,241.5,19.32,241.48,0,241.48Z" transform="translate(0 -15.55)"/><path d="M357.37,241.15V17.42c10.88-2.47,97.68-2.51,108.93-.07,3.06,10.57,4.19,155.89,1.73,222.17a8,8,0,0,1-1,1,2.33,2.33,0,0,1-1.22.55C430.15,241.15,394.46,241.15,357.37,241.15Z" transform="translate(0 -15.55)"/><path d="M199.83,58.27l17.8,6.4,15.66-30.29c10.81,7.4,10.52,21.79,20.26,30.37l15.26-6.29c-.91,16.18-6,31.13-8.09,46.93,3.14,3.69,6.31,1.94,9.25-1,5.95-6,11.81-12,18.36-18.76,2.71,5.07,4.79,8.93,7.27,13.56l25.18-3.52c-2.61,11.22-5,21.42-7.22,31.1l8.13,6.58-41.07,35.18a60.51,60.51,0,0,0,.1,8.76c.37,2.66,1.62,5.21,2.79,8.78-15,3-28.1-2.93-41.63-4.86-6.94,3.53-5.66,10.42-4.08,15.1,3.63,10.85.41,21.48,2.41,32.64H228.9V182.81c-8.39-4.44-15.7,1.75-23.44,1.78-7.11,0-14.2,3.13-23.16,5.34l6.79-17.27c-12.12-15.74-30-25.36-44.29-39.91l10-7.46c-2.93-9.35-5.82-18.55-8.93-28.49,4.38-2.54,8.35-.57,12.81.72s9.28.75,13.89,1L179.42,86c9.51,5.64,14.48,16.2,24.67,22.11,3.08-6.69,1.41-12.41.39-18.19-1.86-10.55-6-20.79-4.46-31.83Z" transform="translate(0 -15.55)"/><path class="cls-1" d="M200,58.07l-.42-.19c-.63-1-.2-.33.23.39Z" transform="translate(0 -15.55)"/><path d="M1745.23,77.56V66.28l40.5-.07V101.9a71.42,71.42,0,0,1-19.24,11.24,56.66,56.66,0,0,1-20.35,3.78,54.06,54.06,0,0,1-25.59-6.07,39.94,39.94,0,0,1-17.38-17.55,55.53,55.53,0,0,1-5.87-25.64,59.69,59.69,0,0,1,5.84-26.21,38.94,38.94,0,0,1,16.79-18.07q11-5.89,25.23-5.9a49.74,49.74,0,0,1,18.75,3.38,31,31,0,0,1,13.14,9.41q4.77,6,7.24,15.74l-11.41,3.15a35.7,35.7,0,0,0-5.35-11.54,22,22,0,0,0-9.13-6.73,33.36,33.36,0,0,0-13.17-2.52,38.63,38.63,0,0,0-15,2.65A28,28,0,0,0,1720,38a33.71,33.71,0,0,0-6,9.51,50.69,50.69,0,0,0-3.65,19.35q0,12.85,4.4,21.51a28.26,28.26,0,0,0,12.82,12.86,39.42,39.42,0,0,0,17.86,4.2,42.29,42.29,0,0,0,16-3.18q7.82-3.18,11.86-6.79V77.56Z" transform="translate(0 -15.55)"/><path d="M1798.51,80.45q0-19.35,10.69-28.67Q1818.14,44,1831,44q14.28,0,23.35,9.42t9.06,26q0,13.46-4,21.16a28.53,28.53,0,0,1-11.67,12,33.88,33.88,0,0,1-16.73,4.26q-14.54,0-23.51-9.38T1798.51,80.45Zm12.06,0q0,13.38,5.8,20a19.25,19.25,0,0,0,29.15,0q5.81-6.69,5.81-20.4,0-12.92-5.84-19.58a19.29,19.29,0,0,0-29.12,0Q1810.57,67.07,1810.57,80.45Z" transform="translate(0 -15.55)"/><path d="M1896.39,115.28,1870,45.62h12.39l14.87,41.71q2.42,6.77,4.44,14,1.56-5.5,4.36-13.25l15.39-42.5h12.07l-26.22,69.66Z" transform="translate(0 -15.55)"/><path d="M1991.34,92.84l12.12,1.51q-2.87,10.7-10.62,16.6t-19.83,5.9q-15.19,0-24.09-9.41T1940,81q0-17.58,9-27.29T1972.36,44q13.89,0,22.69,9.51t8.81,26.77c0,.7,0,1.74-.07,3.14h-51.65Q1952.8,95,1958.6,101a19.14,19.14,0,0,0,14.48,6.1,17.87,17.87,0,0,0,11-3.41Q1988.66,100.32,1991.34,92.84ZM1952.8,73.76h38.67c-.53-5.86-2-10.26-4.44-13.19a18,18,0,0,0-14.54-6.82,18.61,18.61,0,0,0-13.6,5.45Q1953.39,64.65,1952.8,73.76Z" transform="translate(0 -15.55)"/><path d="M2018.07,115.28V45.62h10.57V56.18q4-7.41,7.46-9.77a13,13,0,0,1,7.53-2.37,22.8,22.8,0,0,1,12.07,3.81l-4,10.95a16.78,16.78,0,0,0-8.61-2.56,11.18,11.18,0,0,0-6.92,2.33,12.61,12.61,0,0,0-4.36,6.46,46.07,46.07,0,0,0-2,13.78v36.47Z" transform="translate(0 -15.55)"/><path d="M2062.68,115.28V45.62h10.56v9.9q7.64-11.48,22-11.48a28.76,28.76,0,0,1,11.51,2.27,18.12,18.12,0,0,1,7.86,5.93A22.92,22.92,0,0,1,2118.3,61a68.45,68.45,0,0,1,.65,11.47v42.84h-11.73V72.9q0-7.22-1.37-10.79a11.39,11.39,0,0,0-4.86-5.7,15.43,15.43,0,0,0-8.19-2.13,18.94,18.94,0,0,0-12.94,4.78q-5.45,4.8-5.45,18.17v38.05Z" transform="translate(0 -15.55)"/><path d="M2137,115.28V45.62h10.5v9.77a24.72,24.72,0,0,1,8.67-8.23A24.25,24.25,0,0,1,2168.45,44q7.7,0,12.62,3.22a17.21,17.21,0,0,1,6.94,9Q2196.23,44,2209.4,44q10.3,0,15.85,5.74t5.54,17.68v47.82h-11.67V71.4q0-7.09-1.14-10.2a9.93,9.93,0,0,0-4.15-5,12.83,12.83,0,0,0-7-1.9,16.37,16.37,0,0,0-12.13,4.88q-4.82,4.89-4.82,15.65v40.47H2178.1V70q0-7.87-2.87-11.81t-9.39-3.93a17,17,0,0,0-9.16,2.62,14.86,14.86,0,0,0-6.1,7.67q-1.89,5.06-1.89,14.56v36.15Z" transform="translate(0 -15.55)"/><path d="M2295.61,92.84l12.13,1.51q-2.86,10.7-10.63,16.6t-19.82,5.9q-15.21,0-24.1-9.41t-8.9-26.4q0-17.58,9-27.29T2276.63,44q13.89,0,22.7,9.51t8.8,26.77c0,.7,0,1.74-.07,3.14h-51.64q.64,11.49,6.45,17.58a19.16,19.16,0,0,0,14.48,6.1,17.85,17.85,0,0,0,11-3.41Q2292.93,100.32,2295.61,92.84Zm-38.54-19.08h38.67q-.78-8.79-4.43-13.19a18,18,0,0,0-14.55-6.82,18.57,18.57,0,0,0-13.59,5.45Q2257.65,64.65,2257.07,73.76Z" transform="translate(0 -15.55)"/><path d="M2322.48,115.28V45.62H2333v9.9q7.64-11.48,22-11.48a28.73,28.73,0,0,1,11.51,2.27,18.12,18.12,0,0,1,7.86,5.93A22.77,22.77,0,0,1,2378.1,61a67.36,67.36,0,0,1,.65,11.47v42.84H2367V72.9q0-7.22-1.37-10.79a11.39,11.39,0,0,0-4.86-5.7,15.43,15.43,0,0,0-8.19-2.13,18.94,18.94,0,0,0-12.94,4.78q-5.44,4.8-5.45,18.17v38.05Z" transform="translate(0 -15.55)"/><path d="M2422.38,104.72l1.7,10.42a43.32,43.32,0,0,1-8.87,1c-4.26,0-7.57-.67-9.92-2a11.33,11.33,0,0,1-4.95-5.35q-1.44-3.3-1.44-13.93V54.8h-8.6V45.62h8.6V28.37l11.68-7.09V45.62h11.8V54.8h-11.8V95.53c0,3.37.2,5.53.62,6.5a4.86,4.86,0,0,0,2,2.29,7.74,7.74,0,0,0,4,.85A38.75,38.75,0,0,0,2422.38,104.72Z" transform="translate(0 -15.55)"/><path d="M1694.63,207.45q0-19.35,10.69-28.67,8.94-7.74,21.78-7.74,14.28,0,23.35,9.42t9.06,26q0,13.46-4,21.16a28.59,28.59,0,0,1-11.67,12,33.88,33.88,0,0,1-16.73,4.26q-14.53,0-23.51-9.38T1694.63,207.45Zm12.06,0q0,13.38,5.8,20a19.25,19.25,0,0,0,29.15,0q5.8-6.69,5.81-20.4,0-12.92-5.84-19.58a19.29,19.29,0,0,0-29.12,0Q1706.69,194.07,1706.69,207.45Z" transform="translate(0 -15.55)"/><path d="M1776.07,242.28V181.8H1765.7v-9.18h10.37v-7.41c0-4.68.42-8.16,1.24-10.43a15.08,15.08,0,0,1,6-7.45q4.28-2.85,12-2.85a56.88,56.88,0,0,1,11,1.18l-1.76,10.3a38.9,38.9,0,0,0-6.91-.66q-5.35,0-7.57,2.3t-2.21,8.59v6.43h13.5v9.18h-13.5v60.48Z" transform="translate(0 -15.55)"/><path d="M1917.19,208.56l12.65,3.22q-4,15.67-14.31,23.9t-25.27,8.24q-15.46,0-25.14-6.33t-14.74-18.34a65.69,65.69,0,0,1-5.05-25.77q0-15,5.7-26.21a39.3,39.3,0,0,1,16.24-17,47.22,47.22,0,0,1,23.18-5.8q14.35,0,24.13,7.35t13.63,20.66l-12.45,2.95q-3.33-10.5-9.66-15.28t-15.91-4.79q-11,0-18.42,5.31a28.07,28.07,0,0,0-10.4,14.27,57.72,57.72,0,0,0-3,18.46,59,59,0,0,0,3.55,21.42A26.61,26.61,0,0,0,1873,228.5a30.83,30.83,0,0,0,16.23,4.53,27.11,27.11,0,0,0,18-6.17Q1914.57,220.7,1917.19,208.56Z" transform="translate(0 -15.55)"/><path d="M1989.12,233.68a43.53,43.53,0,0,1-12.56,7.87,36.06,36.06,0,0,1-12.94,2.3q-11.41,0-17.54-5.61a18.54,18.54,0,0,1-6.13-14.33,19.42,19.42,0,0,1,8.38-16.14,28.69,28.69,0,0,1,8.44-3.87,84.58,84.58,0,0,1,10.44-1.77q14.2-1.69,20.93-4.06.06-2.43.06-3.09,0-7.22-3.32-10.16-4.5-4-13.37-4-8.28,0-12.23,2.92t-5.83,10.33L1942,192.49a28.67,28.67,0,0,1,5.15-12,22.58,22.58,0,0,1,10.37-7,46,46,0,0,1,15.72-2.46q8.86,0,14.41,2.1a19,19,0,0,1,8.15,5.28,18.54,18.54,0,0,1,3.65,8,66.89,66.89,0,0,1,.59,10.89v15.74q0,16.46.75,20.82a26.38,26.38,0,0,0,3,8.37h-12.26A25.18,25.18,0,0,1,1989.12,233.68Zm-1-26.36q-6.39,2.61-19.17,4.46-7.24,1-10.24,2.36a10.08,10.08,0,0,0-6.26,9.44,10.07,10.07,0,0,0,3.55,7.87q3.56,3.15,10.4,3.15a24.08,24.08,0,0,0,12.07-3,18.31,18.31,0,0,0,7.76-8.17q1.89-4,1.89-11.81Z" transform="translate(0 -15.55)"/><path d="M2018.2,242.28V172.62h10.57v9.9q7.62-11.47,22-11.48a28.76,28.76,0,0,1,11.51,2.27,18.12,18.12,0,0,1,7.86,5.93,23.08,23.08,0,0,1,3.65,8.73,68.45,68.45,0,0,1,.65,11.47v42.84h-11.74V199.9q0-7.22-1.37-10.79a11.3,11.3,0,0,0-4.86-5.7,15.37,15.37,0,0,0-8.18-2.13,18.93,18.93,0,0,0-12.94,4.78q-5.46,4.8-5.45,18.17v38.05Z" transform="translate(0 -15.55)"/><path d="M2137.67,233.68a43.62,43.62,0,0,1-12.55,7.87,36.16,36.16,0,0,1-12.95,2.3q-11.41,0-17.54-5.61a18.54,18.54,0,0,1-6.13-14.33,19.42,19.42,0,0,1,8.38-16.14,28.69,28.69,0,0,1,8.44-3.87,84.58,84.58,0,0,1,10.44-1.77q14.2-1.69,20.93-4.06c0-1.62.07-2.65.07-3.09q0-7.22-3.33-10.16-4.5-4-13.37-4-8.28,0-12.23,2.92T2102,194.07l-11.48-1.58a28.67,28.67,0,0,1,5.15-12,22.58,22.58,0,0,1,10.37-7,46,46,0,0,1,15.72-2.46q8.86,0,14.41,2.1a19,19,0,0,1,8.15,5.28,18.54,18.54,0,0,1,3.65,8,66.89,66.89,0,0,1,.59,10.89v15.74q0,16.46.75,20.82a26.38,26.38,0,0,0,3,8.37H2140A25.18,25.18,0,0,1,2137.67,233.68Zm-1-26.36q-6.39,2.61-19.17,4.46-7.24,1-10.24,2.36a10.08,10.08,0,0,0-6.26,9.44,10.07,10.07,0,0,0,3.55,7.87q3.55,3.15,10.41,3.15a24.07,24.07,0,0,0,12.06-3,18.31,18.31,0,0,0,7.76-8.17q1.89-4,1.89-11.81Z" transform="translate(0 -15.55)"/><path d="M2211.68,242.28v-8.79q-6.58,10.37-19.36,10.36a27,27,0,0,1-15.23-4.59,30.16,30.16,0,0,1-10.76-12.82,44.62,44.62,0,0,1-3.82-18.93,49.85,49.85,0,0,1,3.46-18.92A27.13,27.13,0,0,1,2191.79,171a23,23,0,0,1,11.15,2.66,23.27,23.27,0,0,1,8,6.92v-34.5h11.67v96.16Zm-37.1-34.77q0,13.38,5.61,20t13.23,6.62a16.58,16.58,0,0,0,13.08-6.33q5.39-6.33,5.38-19.31,0-14.31-5.48-21t-13.5-6.69a16.22,16.22,0,0,0-13.07,6.43Q2174.58,193.67,2174.58,207.51Z" transform="translate(0 -15.55)"/><path d="M2286.22,233.68a43.62,43.62,0,0,1-12.55,7.87,36.16,36.16,0,0,1-13,2.3q-11.41,0-17.54-5.61a18.54,18.54,0,0,1-6.13-14.33,19.49,19.49,0,0,1,8.38-16.14,28.69,28.69,0,0,1,8.44-3.87,84.58,84.58,0,0,1,10.44-1.77q14.22-1.69,20.93-4.06c0-1.62.07-2.65.07-3.09q0-7.22-3.33-10.16-4.5-4-13.37-4-8.28,0-12.22,2.92t-5.84,10.33l-11.48-1.58a28.8,28.8,0,0,1,5.15-12,22.58,22.58,0,0,1,10.37-7,46,46,0,0,1,15.72-2.46q8.86,0,14.41,2.1a19,19,0,0,1,8.15,5.28,18.54,18.54,0,0,1,3.65,8,66.89,66.89,0,0,1,.59,10.89v15.74q0,16.46.75,20.82a26.38,26.38,0,0,0,3,8.37h-12.26A25.18,25.18,0,0,1,2286.22,233.68Zm-1-26.36q-6.39,2.61-19.17,4.46-7.25,1-10.24,2.36a10.08,10.08,0,0,0-6.26,9.44,10.07,10.07,0,0,0,3.55,7.87q3.55,3.15,10.41,3.15a24.07,24.07,0,0,0,12.06-3,18.31,18.31,0,0,0,7.76-8.17q1.89-4,1.89-11.81Z" transform="translate(0 -15.55)"/></g></g></svg>