<svg xmlns="http://www.w3.org/2000/svg" viewBox="0 0 2456.9 229.81"><defs><style>.cls-1{fill:#ea3628;}</style></defs><g id="Layer_2" data-name="Layer 2"><g id="Layer_1-2" data-name="Layer 1"><path d="M1629.51,77.56V66.28l40.49-.07V101.9a71.52,71.52,0,0,1-19.23,11.24,56.7,56.7,0,0,1-20.35,3.78,54.13,54.13,0,0,1-25.6-6.07,40,40,0,0,1-17.37-17.55,55.4,55.4,0,0,1-5.87-25.64,59.82,59.82,0,0,1,5.83-26.21,39,39,0,0,1,16.79-18.07q11-5.89,25.24-5.9a49.81,49.81,0,0,1,18.75,3.38,31.11,31.11,0,0,1,13.14,9.41q4.76,6,7.24,15.74l-11.41,3.15a35.7,35.7,0,0,0-5.35-11.54,22,22,0,0,0-9.13-6.73,33.39,33.39,0,0,0-13.17-2.52,38.56,38.56,0,0,0-15,2.65,28.08,28.08,0,0,0-10.21,7,33.49,33.49,0,0,0-6,9.51,50.5,50.5,0,0,0-3.65,19.35q0,12.85,4.4,21.51a28.24,28.24,0,0,0,12.81,12.86,39.49,39.49,0,0,0,17.87,4.2,42.2,42.2,0,0,0,16-3.18q7.83-3.18,11.87-6.79V77.56Z" transform="translate(0 -15.55)"/><path d="M1682.78,80.45q0-19.35,10.7-28.67,8.93-7.74,21.78-7.74,14.28,0,23.34,9.42t9.07,26q0,13.46-4,21.16a28.65,28.65,0,0,1-11.67,12,33.88,33.88,0,0,1-16.73,4.26q-14.55,0-23.51-9.38T1682.78,80.45Zm12.07,0q0,13.38,5.8,20a19.25,19.25,0,0,0,29.15,0q5.81-6.69,5.8-20.4,0-12.92-5.83-19.58a19.29,19.29,0,0,0-29.12,0Q1694.84,67.07,1694.85,80.45Z" transform="translate(0 -15.55)"/><path d="M1806.81,115.28V105q-8.08,11.8-22,11.81a28,28,0,0,1-11.45-2.36,18.9,18.9,0,0,1-7.89-5.94,22.47,22.47,0,0,1-3.62-8.75,61.23,61.23,0,0,1-.71-11V45.62h11.74V84.25q0,9.25.71,12.46a12.33,12.33,0,0,0,4.7,7.32,14.48,14.48,0,0,0,8.87,2.65,19.19,19.19,0,0,0,9.91-2.72,15.08,15.08,0,0,0,6.55-7.41q1.92-4.69,1.93-13.61V45.62h11.73v69.66Z" transform="translate(0 -15.55)"/><path d="M1854.94,115.28,1828.6,45.62H1841l14.86,41.71q2.42,6.77,4.44,14,1.56-5.5,4.37-13.25l15.39-42.5h12.06l-26.21,69.66Z" transform="translate(0 -15.55)"/><path d="M1949.89,92.84,1962,94.35q-2.88,10.7-10.63,16.6t-19.83,5.9q-15.19,0-24.09-9.41t-8.9-26.4q0-17.58,9-27.29T1930.91,44q13.89,0,22.69,9.51t8.81,26.77c0,.7,0,1.75-.07,3.14H1910.7q.65,11.49,6.45,17.58a19.16,19.16,0,0,0,14.48,6.1,17.85,17.85,0,0,0,11-3.41Q1947.21,100.32,1949.89,92.84Zm-38.54-19.08H1950q-.78-8.79-4.44-13.19A18,18,0,0,0,1931,53.75a18.57,18.57,0,0,0-13.59,5.45Q1911.93,64.65,1911.35,73.76Z" transform="translate(0 -15.55)"/><path d="M1976.62,115.28V45.62h10.57V56.18q4-7.41,7.47-9.77a12.93,12.93,0,0,1,7.53-2.37,22.79,22.79,0,0,1,12.06,3.81l-4,10.95a16.78,16.78,0,0,0-8.61-2.56,11.13,11.13,0,0,0-6.91,2.33,12.63,12.63,0,0,0-4.37,6.46,46.07,46.07,0,0,0-2,13.78v36.47Z" transform="translate(0 -15.55)"/><path d="M2021.23,115.28V45.62h10.56v9.9q7.64-11.48,22-11.48a28.73,28.73,0,0,1,11.51,2.27,18.12,18.12,0,0,1,7.86,5.93,22.77,22.77,0,0,1,3.65,8.73,67.07,67.07,0,0,1,.66,11.47v42.84h-11.74V72.9q0-7.22-1.37-10.79a11.3,11.3,0,0,0-4.86-5.7,15.39,15.39,0,0,0-8.18-2.13,19,19,0,0,0-13,4.78q-5.45,4.8-5.44,18.17v38.05Z" transform="translate(0 -15.55)"/><path d="M2142.91,92.84,2155,94.35q-2.86,10.7-10.63,16.6t-19.82,5.9q-15.2,0-24.1-9.41t-8.9-26.4q0-17.58,9-27.29T2123.94,44q13.89,0,22.69,9.51t8.8,26.77c0,.7,0,1.75-.06,3.14h-51.65q.65,11.49,6.46,17.58a19.12,19.12,0,0,0,14.47,6.1,17.83,17.83,0,0,0,11-3.41Q2140.25,100.32,2142.91,92.84Zm-38.54-19.08H2143q-.78-8.79-4.43-13.19a18,18,0,0,0-14.54-6.82,18.58,18.58,0,0,0-13.6,5.45Q2105,64.65,2104.37,73.76Z" transform="translate(0 -15.55)"/><path d="M2169.78,115.28V45.62h10.5v9.77a24.72,24.72,0,0,1,8.67-8.23A24.25,24.25,0,0,1,2201.28,44q7.69,0,12.61,3.22a17.17,17.17,0,0,1,7,9Q2229.06,44,2242.23,44q10.3,0,15.84,5.74t5.55,17.68v47.82h-11.68V71.4q0-7.09-1.14-10.2a9.86,9.86,0,0,0-4.14-5,12.86,12.86,0,0,0-7-1.9,16.37,16.37,0,0,0-12.13,4.88q-4.83,4.89-4.83,15.65v40.47h-11.73V70q0-7.87-2.87-11.81t-9.39-3.93a16.94,16.94,0,0,0-9.16,2.62,14.86,14.86,0,0,0-6.1,7.67q-1.89,5.06-1.89,14.57v36.14Z" transform="translate(0 -15.55)"/><path d="M2328.44,92.84l12.13,1.51q-2.88,10.7-10.63,16.6t-19.83,5.9q-15.2,0-24.09-9.41t-8.9-26.4q0-17.58,9-27.29T2309.46,44q13.89,0,22.69,9.51T2341,80.32c0,.7,0,1.75-.07,3.14h-51.64q.64,11.49,6.45,17.58a19.16,19.16,0,0,0,14.48,6.1,17.85,17.85,0,0,0,11-3.41Q2325.76,100.32,2328.44,92.84ZM2289.9,73.76h38.67q-.78-8.79-4.44-13.19a18,18,0,0,0-14.54-6.82A18.57,18.57,0,0,0,2296,59.2Q2290.48,64.65,2289.9,73.76Z" transform="translate(0 -15.55)"/><path d="M2355.3,115.28V45.62h10.57v9.9q7.62-11.48,22-11.48a28.76,28.76,0,0,1,11.51,2.27,18.12,18.12,0,0,1,7.86,5.93,22.92,22.92,0,0,1,3.65,8.73,68.45,68.45,0,0,1,.65,11.47v42.84h-11.74V72.9q0-7.22-1.37-10.79a11.32,11.32,0,0,0-4.85-5.7,15.43,15.43,0,0,0-8.19-2.13,18.94,18.94,0,0,0-12.94,4.78q-5.44,4.8-5.45,18.17v38.05Z" transform="translate(0 -15.55)"/><path d="M2455.21,104.72l1.69,10.42a43.23,43.23,0,0,1-8.86,1c-4.27,0-7.57-.67-9.92-2a11.33,11.33,0,0,1-4.95-5.35q-1.44-3.3-1.44-13.93V54.8h-8.61V45.62h8.61V28.37l11.68-7.09V45.62h11.8V54.8h-11.8V95.53c0,3.37.2,5.53.61,6.5a4.94,4.94,0,0,0,2,2.29,7.74,7.74,0,0,0,4,.85A38.75,38.75,0,0,0,2455.21,104.72Z" transform="translate(0 -15.55)"/><path d="M1628.2,242.28v-8.79q-6.59,10.37-19.37,10.36a27,27,0,0,1-15.22-4.59,30.16,30.16,0,0,1-10.76-12.82,44.47,44.47,0,0,1-3.82-18.93,49.65,49.65,0,0,1,3.46-18.92A27.13,27.13,0,0,1,1608.31,171a23,23,0,0,1,11.15,2.66,23.36,23.36,0,0,1,8,6.92v-34.5h11.67v96.16Zm-37.1-34.77q0,13.38,5.6,20t13.24,6.62a16.58,16.58,0,0,0,13.08-6.33q5.37-6.33,5.38-19.31,0-14.31-5.48-21t-13.5-6.69a16.21,16.21,0,0,0-13.07,6.43Q1591.1,193.67,1591.1,207.51Z" transform="translate(0 -15.55)"/><path d="M1702.93,242.28V232q-8.09,11.81-22,11.81a28,28,0,0,1-11.45-2.36,18.9,18.9,0,0,1-7.89-5.94,22.32,22.32,0,0,1-3.62-8.75,60.3,60.3,0,0,1-.71-11V172.62H1669v38.63q0,9.25.72,12.46a12.33,12.33,0,0,0,4.7,7.32,14.48,14.48,0,0,0,8.87,2.65,19.19,19.19,0,0,0,9.91-2.72,15.08,15.08,0,0,0,6.55-7.41q1.92-4.7,1.92-13.61V172.62h11.74v69.66Z" transform="translate(0 -15.55)"/><path d="M1838.64,208.56l12.65,3.22q-4,15.67-14.31,23.9t-25.27,8.24q-15.46,0-25.14-6.33t-14.74-18.34a65.69,65.69,0,0,1-5-25.77q0-15,5.7-26.21a39.3,39.3,0,0,1,16.24-17,47.22,47.22,0,0,1,23.18-5.8q14.36,0,24.13,7.35t13.63,20.66l-12.46,2.95q-3.32-10.5-9.65-15.28t-15.91-4.79q-11,0-18.42,5.31a28,28,0,0,0-10.4,14.27,57.72,57.72,0,0,0-3,18.46,59,59,0,0,0,3.55,21.42,26.64,26.64,0,0,0,11.05,13.67,30.87,30.87,0,0,0,16.24,4.53,27.11,27.11,0,0,0,18-6.17Q1836,220.7,1838.64,208.56Z" transform="translate(0 -15.55)"/><path d="M1910.57,233.68a43.66,43.66,0,0,1-12.56,7.87,36.06,36.06,0,0,1-12.94,2.3q-11.41,0-17.54-5.61a18.54,18.54,0,0,1-6.13-14.33,19.42,19.42,0,0,1,8.38-16.14,28.42,28.42,0,0,1,8.44-3.86,81.77,81.77,0,0,1,10.43-1.78q14.22-1.69,20.94-4.06.06-2.43.06-3.09,0-7.2-3.32-10.16-4.5-4-13.37-4-8.28,0-12.23,2.92t-5.84,10.33l-11.47-1.58a28.67,28.67,0,0,1,5.15-12,22.58,22.58,0,0,1,10.37-7,46,46,0,0,1,15.71-2.46q8.88,0,14.42,2.1a19,19,0,0,1,8.15,5.28,18.77,18.77,0,0,1,3.65,8,66.89,66.89,0,0,1,.59,10.89v15.74q0,16.46.75,20.82a26.11,26.11,0,0,0,3,8.37h-12.26A25.18,25.18,0,0,1,1910.57,233.68Zm-1-26.36q-6.39,2.63-19.17,4.46-7.25,1-10.24,2.36a10.35,10.35,0,0,0-2.71,17.31q3.55,3.15,10.4,3.15a24.14,24.14,0,0,0,12.07-3,18.36,18.36,0,0,0,7.76-8.17q1.89-4,1.89-11.81Z" transform="translate(0 -15.55)"/><path d="M1939.65,242.28V172.62h10.56v9.9q7.63-11.47,22-11.48a28.76,28.76,0,0,1,11.51,2.27,18.14,18.14,0,0,1,7.85,5.93,22.77,22.77,0,0,1,3.65,8.73,67.07,67.07,0,0,1,.66,11.47v42.84h-11.74V199.9q0-7.22-1.37-10.79a11.3,11.3,0,0,0-4.86-5.7,15.39,15.39,0,0,0-8.18-2.13,19,19,0,0,0-13,4.78q-5.44,4.8-5.44,18.17v38.05Z" transform="translate(0 -15.55)"/><path d="M2059.12,233.68a43.66,43.66,0,0,1-12.56,7.87,36.06,36.06,0,0,1-12.94,2.3q-11.41,0-17.54-5.61a18.54,18.54,0,0,1-6.13-14.33,19.42,19.42,0,0,1,8.38-16.14,28.42,28.42,0,0,1,8.44-3.86,82,82,0,0,1,10.44-1.78q14.2-1.69,20.93-4.06.06-2.43.06-3.09,0-7.2-3.32-10.16-4.5-4-13.37-4-8.28,0-12.23,2.92t-5.83,10.33L2012,192.49a28.67,28.67,0,0,1,5.15-12,22.58,22.58,0,0,1,10.37-7A46,46,0,0,1,2043.2,171q8.88,0,14.42,2.1a19,19,0,0,1,8.15,5.28,18.65,18.65,0,0,1,3.65,8,66.89,66.89,0,0,1,.59,10.89v15.74q0,16.46.75,20.82a26.6,26.6,0,0,0,3,8.37h-12.26A25.18,25.18,0,0,1,2059.12,233.68Zm-1-26.36q-6.39,2.63-19.17,4.46-7.24,1-10.24,2.36a10.35,10.35,0,0,0-2.71,17.31q3.56,3.15,10.4,3.15a24.11,24.11,0,0,0,12.07-3,18.36,18.36,0,0,0,7.76-8.17q1.89-4,1.89-11.81Z" transform="translate(0 -15.55)"/><path d="M2133.13,242.28v-8.79q-6.59,10.37-19.37,10.36a27,27,0,0,1-15.22-4.59,30.16,30.16,0,0,1-10.76-12.82,44.47,44.47,0,0,1-3.82-18.93,49.65,49.65,0,0,1,3.46-18.92A27.13,27.13,0,0,1,2113.24,171a23,23,0,0,1,11.15,2.66,23.45,23.45,0,0,1,8,6.92v-34.5H2144v96.16ZM2096,207.51q0,13.38,5.6,20t13.24,6.62a16.58,16.58,0,0,0,13.08-6.33q5.37-6.33,5.38-19.31,0-14.31-5.48-21t-13.5-6.69a16.19,16.19,0,0,0-13.07,6.43Q2096,193.67,2096,207.51Z" transform="translate(0 -15.55)"/><path d="M2207.67,233.68a43.66,43.66,0,0,1-12.56,7.87,36.06,36.06,0,0,1-12.94,2.3q-11.41,0-17.54-5.61a18.54,18.54,0,0,1-6.13-14.33,19.42,19.42,0,0,1,8.38-16.14,28.42,28.42,0,0,1,8.44-3.86,82,82,0,0,1,10.44-1.78q14.2-1.69,20.93-4.06.06-2.43.06-3.09,0-7.2-3.32-10.16-4.5-4-13.37-4-8.28,0-12.23,2.92T2172,194.07l-11.48-1.58a28.67,28.67,0,0,1,5.15-12,22.58,22.58,0,0,1,10.37-7,46,46,0,0,1,15.71-2.46q8.88,0,14.42,2.1a19,19,0,0,1,8.15,5.28,18.65,18.65,0,0,1,3.65,8,66.89,66.89,0,0,1,.59,10.89v15.74q0,16.46.75,20.82a26.6,26.6,0,0,0,3,8.37H2210A25.18,25.18,0,0,1,2207.67,233.68Zm-1-26.36q-6.39,2.63-19.17,4.46-7.24,1-10.24,2.36a10.35,10.35,0,0,0-2.71,17.31q3.55,3.15,10.4,3.15a24.11,24.11,0,0,0,12.07-3,18.36,18.36,0,0,0,7.76-8.17q1.89-4,1.89-11.81Z" transform="translate(0 -15.55)"/><path d="M708.21,79V67.72l40.49-.07v35.68a71.15,71.15,0,0,1-19.23,11.25,56.87,56.87,0,0,1-20.35,3.77,54,54,0,0,1-25.6-6.07,40,40,0,0,1-17.37-17.54,55.41,55.41,0,0,1-5.87-25.65,59.81,59.81,0,0,1,5.83-26.2,38.91,38.91,0,0,1,16.8-18.07q11-5.91,25.23-5.9a49.81,49.81,0,0,1,18.75,3.37A31.07,31.07,0,0,1,740,31.71a41.87,41.87,0,0,1,7.24,15.74L735.86,50.6a35.76,35.76,0,0,0-5.35-11.55,21.94,21.94,0,0,0-9.13-6.72,33.4,33.4,0,0,0-13.17-2.53,38.56,38.56,0,0,0-15,2.66,28,28,0,0,0-10.21,7A33.43,33.43,0,0,0,677,49a50.62,50.62,0,0,0-3.65,19.35q0,12.85,4.4,21.51a28.33,28.33,0,0,0,12.81,12.86,39.61,39.61,0,0,0,17.87,4.19,42.2,42.2,0,0,0,16-3.18q7.83-3.18,11.87-6.79V79Z" transform="translate(0 -15.55)"/><path d="M761.48,81.88q0-19.35,10.7-28.66,8.93-7.74,21.78-7.74,14.28,0,23.34,9.41t9.07,26q0,13.44-4,21.15a28.53,28.53,0,0,1-11.67,12A33.88,33.88,0,0,1,794,118.29q-14.55,0-23.51-9.38T761.48,81.88Zm12.07,0q0,13.38,5.8,20a19.25,19.25,0,0,0,29.15,0q5.81-6.69,5.81-20.4,0-12.92-5.84-19.58a19.27,19.27,0,0,0-29.12,0Q773.55,68.5,773.55,81.88Z" transform="translate(0 -15.55)"/><path d="M859.37,116.71,833,47.05h12.39l14.87,41.72q2.41,6.75,4.43,14,1.57-5.52,4.37-13.25l15.39-42.51h12.07l-26.22,69.66Z" transform="translate(0 -15.55)"/><path d="M954.31,94.28l12.13,1.51q-2.87,10.69-10.63,16.59T936,118.29q-15.19,0-24.1-9.42T903,82.47q0-17.56,9-27.28t23.35-9.71q13.89,0,22.69,9.51t8.8,26.76q0,1.05-.06,3.15H915.12q.66,11.47,6.46,17.58a19.14,19.14,0,0,0,14.47,6.1,17.94,17.94,0,0,0,11-3.41Q951.64,101.75,954.31,94.28ZM915.77,75.19h38.67Q953.66,66.4,950,62a18,18,0,0,0-14.54-6.82,18.59,18.59,0,0,0-13.6,5.44Q916.37,66.08,915.77,75.19Z" transform="translate(0 -15.55)"/><path d="M981.05,116.71V47.05h10.56V57.61q4-7.41,7.47-9.77a13,13,0,0,1,7.53-2.36,22.87,22.87,0,0,1,12.07,3.8l-4,11a16.68,16.68,0,0,0-8.6-2.56A11.18,11.18,0,0,0,999.11,60a12.61,12.61,0,0,0-4.37,6.46,46.38,46.38,0,0,0-2,13.77v36.47Z" transform="translate(0 -15.55)"/><path d="M1025.65,116.71V47.05h10.57V57q7.62-11.48,22-11.48a28.76,28.76,0,0,1,11.51,2.26,18.13,18.13,0,0,1,7.86,5.94,22.94,22.94,0,0,1,3.65,8.72,68.68,68.68,0,0,1,.65,11.48v42.83h-11.74V74.34q0-7.22-1.37-10.79a11.39,11.39,0,0,0-4.85-5.71,15.43,15.43,0,0,0-8.19-2.13,19,19,0,0,0-12.94,4.79q-5.44,4.78-5.45,18.17v38Z" transform="translate(0 -15.55)"/><path d="M1099.93,116.71V47.05h10.5v9.78a24.63,24.63,0,0,1,8.67-8.23,24.25,24.25,0,0,1,12.33-3.12q7.69,0,12.61,3.21a17.2,17.2,0,0,1,7,9q8.22-12.19,21.39-12.2,10.3,0,15.85,5.74t5.54,17.68v47.81H1182.1V72.83c0-4.72-.39-8.12-1.15-10.2a9.9,9.9,0,0,0-4.14-5,12.92,12.92,0,0,0-7-1.9,16.34,16.34,0,0,0-12.13,4.89q-4.83,4.89-4.82,15.64v40.47h-11.74V71.45q0-7.86-2.87-11.8t-9.39-3.94a17,17,0,0,0-9.16,2.63,14.82,14.82,0,0,0-6.1,7.67q-1.89,5.05-1.89,14.56v36.14Z" transform="translate(0 -15.55)"/><path d="M1258.59,94.28l12.13,1.51q-2.88,10.69-10.63,16.59t-19.83,5.91q-15.19,0-24.09-9.42t-8.9-26.4q0-17.56,9-27.28t23.34-9.71q13.89,0,22.69,9.51t8.81,26.76c0,.7,0,1.75-.07,3.15H1219.4q.64,11.47,6.45,17.58a19.16,19.16,0,0,0,14.48,6.1,17.91,17.91,0,0,0,11-3.41Q1255.91,101.75,1258.59,94.28Zm-38.54-19.09h38.67q-.78-8.79-4.44-13.18a17.93,17.93,0,0,0-14.54-6.82,18.6,18.6,0,0,0-13.6,5.44Q1220.64,66.08,1220.05,75.19Z" transform="translate(0 -15.55)"/><path d="M1285.45,116.71V47.05H1296V57q7.62-11.48,22-11.48a28.76,28.76,0,0,1,11.51,2.26,18.13,18.13,0,0,1,7.86,5.94,22.94,22.94,0,0,1,3.65,8.72,68.68,68.68,0,0,1,.65,11.48v42.83H1330V74.34q0-7.22-1.37-10.79a11.39,11.39,0,0,0-4.85-5.71,15.43,15.43,0,0,0-8.19-2.13,19,19,0,0,0-12.94,4.79q-5.45,4.78-5.45,18.17v38Z" transform="translate(0 -15.55)"/><path d="M1385.36,106.15l1.69,10.43a43.25,43.25,0,0,1-8.87,1q-6.39,0-9.91-2a11.32,11.32,0,0,1-5-5.35q-1.44-3.31-1.44-13.94V56.24h-8.61V47.05h8.61V29.8l11.67-7.08V47.05h11.81v9.19h-11.81V97q0,5.06.62,6.49a5,5,0,0,0,2,2.3,7.74,7.74,0,0,0,4,.85A37.4,37.4,0,0,0,1385.36,106.15Z" transform="translate(0 -15.55)"/><path d="M657.6,208.88q0-19.35,10.7-28.66,8.93-7.74,21.78-7.74,14.28,0,23.34,9.41t9.07,26q0,13.44-4,21.15a28.53,28.53,0,0,1-11.67,12,33.88,33.88,0,0,1-16.73,4.27q-14.55,0-23.51-9.38T657.6,208.88Zm12.07,0q0,13.38,5.8,20a19.25,19.25,0,0,0,29.15,0q5.8-6.69,5.8-20.4,0-12.92-5.83-19.58a19.27,19.27,0,0,0-29.12,0Q669.67,195.5,669.67,208.88Z" transform="translate(0 -15.55)"/><path d="M739.05,243.71V183.24H728.68v-9.19h10.37v-7.41c0-4.68.41-8.15,1.24-10.43a15.06,15.06,0,0,1,6-7.44q4.26-2.85,12-2.85a56.9,56.9,0,0,1,11,1.18l-1.76,10.29a39.89,39.89,0,0,0-6.91-.65q-5.35,0-7.57,2.29c-1.48,1.54-2.22,4.4-2.22,8.6v6.42h13.5v9.19h-13.5v60.47Z" transform="translate(0 -15.55)"/><path d="M880.17,210l12.65,3.21q-4,15.67-14.31,23.91t-25.27,8.23q-15.47,0-25.14-6.33t-14.74-18.33a65.74,65.74,0,0,1-5.05-25.78q0-15,5.7-26.2a39.25,39.25,0,0,1,16.24-17,47.22,47.22,0,0,1,23.18-5.8q14.36,0,24.13,7.34t13.63,20.66l-12.46,3q-3.32-10.49-9.65-15.28t-15.91-4.79q-11,0-18.42,5.32a28,28,0,0,0-10.4,14.26,57.78,57.78,0,0,0-3,18.47,59,59,0,0,0,3.55,21.41A26.66,26.66,0,0,0,836,229.94a31,31,0,0,0,16.24,4.52q10.63,0,18-6.16T880.17,210Z" transform="translate(0 -15.55)"/><path d="M952.1,235.12A43.66,43.66,0,0,1,939.54,243a36.06,36.06,0,0,1-12.94,2.3q-11.42,0-17.54-5.61a18.56,18.56,0,0,1-6.13-14.33,19.42,19.42,0,0,1,8.38-16.14,28.69,28.69,0,0,1,8.44-3.87,84.24,84.24,0,0,1,10.44-1.77q14.2-1.71,20.93-4.07c0-1.61.06-2.64.06-3.08q0-7.21-3.32-10.17-4.5-4-13.37-4-8.28,0-12.23,2.92t-5.83,10.33L905,193.93a28.67,28.67,0,0,1,5.15-12,22.58,22.58,0,0,1,10.37-7,46,46,0,0,1,15.71-2.46q8.88,0,14.42,2.1a19,19,0,0,1,8.15,5.28,18.66,18.66,0,0,1,3.65,8,67,67,0,0,1,.59,10.89v15.74q0,16.47.75,20.83a26.55,26.55,0,0,0,3,8.36H954.44A25.12,25.12,0,0,1,952.1,235.12Zm-1-26.37q-6.39,2.63-19.17,4.46a44.37,44.37,0,0,0-10.24,2.36,10.24,10.24,0,0,0-4.63,3.84A10.49,10.49,0,0,0,919,232.89q3.56,3.15,10.4,3.15a24.12,24.12,0,0,0,12.07-3,18.39,18.39,0,0,0,7.76-8.16q1.89-4,1.89-11.81Z" transform="translate(0 -15.55)"/><path d="M981.18,243.71V174.05h10.56V184q7.63-11.47,22-11.48a28.76,28.76,0,0,1,11.51,2.26,18.16,18.16,0,0,1,7.85,5.94,22.79,22.79,0,0,1,3.65,8.72,67.29,67.29,0,0,1,.66,11.48v42.83h-11.74V201.34q0-7.22-1.37-10.79a11.36,11.36,0,0,0-4.86-5.71,15.39,15.39,0,0,0-8.18-2.13,19,19,0,0,0-12.95,4.79q-5.45,4.78-5.44,18.17v38Z" transform="translate(0 -15.55)"/><path d="M1100.65,235.12a43.66,43.66,0,0,1-12.56,7.87,36.06,36.06,0,0,1-12.94,2.3q-11.42,0-17.54-5.61a18.56,18.56,0,0,1-6.13-14.33,19.42,19.42,0,0,1,8.38-16.14,28.69,28.69,0,0,1,8.44-3.87,84.24,84.24,0,0,1,10.44-1.77q14.21-1.71,20.93-4.07c0-1.61.06-2.64.06-3.08q0-7.21-3.32-10.17-4.5-4-13.37-4-8.28,0-12.23,2.92T1065,195.5l-11.48-1.57a28.67,28.67,0,0,1,5.15-12,22.58,22.58,0,0,1,10.37-7,46,46,0,0,1,15.71-2.46q8.88,0,14.42,2.1a19,19,0,0,1,8.15,5.28,18.66,18.66,0,0,1,3.65,8,67,67,0,0,1,.59,10.89v15.74q0,16.47.75,20.83a26.55,26.55,0,0,0,3,8.36H1103A25.12,25.12,0,0,1,1100.65,235.12Zm-1-26.37q-6.39,2.63-19.17,4.46a44.37,44.37,0,0,0-10.24,2.36,10.24,10.24,0,0,0-4.63,3.84,10.49,10.49,0,0,0,1.92,13.48q3.56,3.15,10.4,3.15a24.12,24.12,0,0,0,12.07-3,18.39,18.39,0,0,0,7.76-8.16q1.89-4,1.89-11.81Z" transform="translate(0 -15.55)"/><path d="M1174.66,243.71v-8.79q-6.59,10.37-19.37,10.37a27,27,0,0,1-15.22-4.6,30.1,30.1,0,0,1-10.76-12.82,44.42,44.42,0,0,1-3.82-18.92A49.65,49.65,0,0,1,1129,190a27.13,27.13,0,0,1,25.82-17.55,23,23,0,0,1,11.15,2.66,23.35,23.35,0,0,1,8,6.92v-34.5h11.67v96.15ZM1137.56,209q0,13.38,5.6,20t13.24,6.63a16.58,16.58,0,0,0,13.08-6.33q5.37-6.33,5.38-19.32,0-14.3-5.48-21t-13.5-6.69a16.22,16.22,0,0,0-13.07,6.43Q1137.56,195.12,1137.56,209Z" transform="translate(0 -15.55)"/><path d="M1249.2,235.12a43.66,43.66,0,0,1-12.56,7.87,36.06,36.06,0,0,1-12.94,2.3q-11.42,0-17.54-5.61a18.56,18.56,0,0,1-6.13-14.33,19.42,19.42,0,0,1,8.38-16.14,28.69,28.69,0,0,1,8.44-3.87,84.24,84.24,0,0,1,10.44-1.77q14.2-1.71,20.93-4.07c0-1.61.06-2.64.06-3.08q0-7.21-3.32-10.17-4.5-4-13.37-4-8.28,0-12.23,2.92t-5.83,10.33l-11.48-1.57a28.67,28.67,0,0,1,5.15-12,22.58,22.58,0,0,1,10.37-7,46,46,0,0,1,15.72-2.46q8.87,0,14.41,2.1a19,19,0,0,1,8.15,5.28,18.66,18.66,0,0,1,3.65,8,67,67,0,0,1,.59,10.89v15.74q0,16.47.75,20.83a26.55,26.55,0,0,0,3,8.36h-12.26A25.12,25.12,0,0,1,1249.2,235.12Zm-1-26.37q-6.39,2.63-19.17,4.46a44.37,44.37,0,0,0-10.24,2.36,10.3,10.3,0,0,0-4.63,3.84,10.49,10.49,0,0,0,1.92,13.48q3.56,3.15,10.4,3.15a24.12,24.12,0,0,0,12.07-3,18.34,18.34,0,0,0,7.76-8.16q1.89-4,1.89-11.81Z" transform="translate(0 -15.55)"/><path d="M0,241.48v-225H110.31V241.32c-18.09.05-36.47.12-54.85.15C37.39,241.5,19.32,241.48,0,241.48Z" transform="translate(0 -15.55)"/><path d="M357.37,241.15V17.42c10.88-2.47,97.68-2.51,108.93-.07,3.06,10.57,4.19,155.89,1.73,222.17a8,8,0,0,1-1,1,2.33,2.33,0,0,1-1.22.55C430.15,241.15,394.46,241.15,357.37,241.15Z" transform="translate(0 -15.55)"/><path d="M199.83,58.27l17.8,6.4,15.66-30.29c10.81,7.4,10.52,21.79,20.26,30.37l15.26-6.29c-.91,16.18-6,31.13-8.09,46.93,3.14,3.69,6.31,1.94,9.25-1,5.95-6,11.81-12,18.36-18.76,2.71,5.07,4.79,8.93,7.27,13.56l25.18-3.52c-2.61,11.22-5,21.42-7.22,31.1l8.13,6.58-41.07,35.18a60.51,60.51,0,0,0,.1,8.76c.37,2.66,1.62,5.21,2.79,8.78-15,3-28.1-2.93-41.63-4.86-6.94,3.53-5.66,10.42-4.08,15.1,3.63,10.85.41,21.48,2.41,32.64H228.9V182.81c-8.39-4.44-15.7,1.75-23.44,1.78-7.11,0-14.2,3.13-23.16,5.34l6.79-17.27c-12.12-15.74-30-25.36-44.29-39.91l10-7.46c-2.93-9.35-5.82-18.55-8.93-28.49,4.38-2.54,8.35-.57,12.81.72s9.28.75,13.89,1L179.42,86c9.51,5.64,14.48,16.2,24.67,22.11,3.08-6.69,1.41-12.41.39-18.19-1.86-10.55-6-20.79-4.46-31.83Z" transform="translate(0 -15.55)"/><path class="cls-1" d="M200,58.07l-.42-.19c-.63-1-.2-.33.23.39Z" transform="translate(0 -15.55)"/></g></g></svg>