<svg xmlns="http://www.w3.org/2000/svg" viewBox="0 0 107.63 133.53"><defs><style>.cls-1{fill:none;stroke:#000;stroke-miterlimit:10;stroke-width:4px;}</style></defs><title>Asset 15</title><g id="Layer_2" data-name="Layer 2"><g id="Layer_1-2" data-name="Layer 1"><path class="cls-1" d="M97,36.54l-5.93,86.94a8.63,8.63,0,0,1-8.61,8H25.18a8.64,8.64,0,0,1-8.62-8L10.64,36.54"/><path class="cls-1" d="M4,19.27h99.63a2,2,0,0,1,2,2V36.54a0,0,0,0,1,0,0H2a0,0,0,0,1,0,0V21.27A2,2,0,0,1,4,19.27Z"/><path class="cls-1" d="M36.54,19.27V6.32A4.31,4.31,0,0,1,40.86,2H66.77a4.31,4.31,0,0,1,4.31,4.32v13"/><line class="cls-1" x1="30.07" y1="53.81" x2="34.38" y2="109.94"/><line class="cls-1" x1="53.81" y1="53.81" x2="53.81" y2="109.94"/><line class="cls-1" x1="77.56" y1="53.81" x2="73.24" y2="109.94"/></g></g></svg>