<svg xmlns="http://www.w3.org/2000/svg" viewBox="0 0 267 267"><defs><style>.cls-1,.cls-3{fill:none;}.cls-1{stroke:#f2f2f2;stroke-miterlimit:10;stroke-width:8px;}.cls-2{fill:#f2f2f2;}</style></defs><title>Asset 14</title><g id="Layer_2" data-name="Layer 2"><g id="Layer_1-2" data-name="Layer 1"><circle class="cls-1" cx="133.5" cy="133.5" r="129.5"/><circle class="cls-2" cx="133.5" cy="86.2" r="49.2"/><path class="cls-3" d="M72,150.4a12,12,0,0,1,12-12h25.49a54.15,54.15,0,0,0,46.77,0H183a12,12,0,0,1,12,12v76.54a32,32,0,0,1-1,8,122,122,0,0,0,25.42-19.52A121.5,121.5,0,1,0,47.59,43.59a121.48,121.48,0,0,0,0,171.82A122,122,0,0,0,73,234.93a32,32,0,0,1-1-8ZM132.87,40.31a49.2,49.2,0,1,1-49.2,49.2A49.2,49.2,0,0,1,132.87,40.31Z"/><path class="cls-2" d="M194,234.93a32,32,0,0,0,1-8V150.4a12,12,0,0,0-12-12H156.26a54.15,54.15,0,0,1-46.77,0H84a12,12,0,0,0-12,12v76.54a32,32,0,0,0,1,8,121.88,121.88,0,0,0,121,0Z"/><path class="cls-3" d="M127.4,138.4h10.95a49.21,49.21,0,1,0-10.95,0Z"/></g></g></svg>