<!-- Generator: Adobe Illustrator 24.0.1, SVG Export Plug-In  -->
<svg version="1.1" xmlns="http://www.w3.org/2000/svg" xmlns:xlink="http://www.w3.org/1999/xlink" x="0px" y="0px"
	 width="1441.53px" height="658.58px" viewBox="0 0 1441.53 658.58" style="enable-background:new 0 0 1441.53 658.58;"
	 xml:space="preserve">
<style type="text/css">
	.st0{fill:url(#SVGID_1_);}
	.st1{opacity:0.55;fill:url(#SVGID_2_);}
	.st2{opacity:0.55;fill:url(#SVGID_3_);}
	.st3{fill:url(#SVGID_4_);}
	.st4{opacity:0.55;fill:url(#SVGID_5_);}
	.st5{opacity:0.55;fill:url(#SVGID_6_);}
</style>
<defs>
</defs>
<linearGradient id="SVGID_1_" gradientUnits="userSpaceOnUse" x1="721.5346" y1="557.1815" x2="721.5346" y2="0">
	<stop  offset="0.0908" style="stop-color:#103C61"/>
	<stop  offset="1" style="stop-color:#308393"/>
</linearGradient>
<path class="st0" d="M1.53,425.2c0,0,368.38,215.49,752.89,95.77s687.11-109.86,687.11-109.86V0H1.53V425.2z"/>
<linearGradient id="SVGID_2_" gradientUnits="userSpaceOnUse" x1="721.5346" y1="616.3364" x2="721.5346" y2="2.498154e-04" gradientTransform="matrix(-1 0 0 1 1443.0692 0)">
	<stop  offset="0.0908" style="stop-color:#103C61"/>
	<stop  offset="1" style="stop-color:#308393"/>
</linearGradient>
<path class="st1" d="M1441.53,470.34c0,0-368.38,238.37-752.89,105.94S1.53,424.51,1.53,424.51V0l1440,0V470.34z"/>
<linearGradient id="SVGID_3_" gradientUnits="userSpaceOnUse" x1="720.7673" y1="658.5844" x2="720.7673" y2="2.494153e-04">
	<stop  offset="0.0908" style="stop-color:#103C61"/>
	<stop  offset="1" style="stop-color:#308393"/>
</linearGradient>
<path class="st2" d="M41.34,446.92c40.61,24.68,78.3,54.81,118.41,80.27c47.48,30.14,96.5,58.04,147.94,80.88
	c74.36,33.01,164.72,64.63,246.73,43.89c192.96-47.89,416.9-216.9,559.15-173.24s193.94,161.97,327.96,67.61V0
	c0,0-1425.21,0-1439.89,0C1.42,0,1.53,227.49,1.53,243.57c0,48.54,0,97.07,0,145.61c0,8.17-3.45,25.56,0,33.13
	c3.34,7.32,14.06,9.9,21.87,14.2C29.46,439.85,35.43,443.32,41.34,446.92z"/>
</svg>
